<svg width="126" height="24" viewBox="0 0 126 24" fill="none" xmlns="http://www.w3.org/2000/svg">
<path d="M-0.00488281 24.0003L11.4131 0.570312H18.4091L29.8271 24.0003H22.7981L20.2241 18.4563H9.16912L6.62812 24.0003H-0.00488281ZM11.2811 13.9683H18.1781L14.7461 6.57631L11.2811 13.9683Z" fill="#EDE2E2"/>
<path d="M31.688 24.0003V0.570312H46.142C52.379 0.570312 55.547 3.30931 55.547 8.35831C55.547 12.0213 53.765 14.4303 50.465 15.6183L55.778 24.0003H48.254L43.7 16.4763H38.288V24.0003H31.688ZM45.548 5.45431H38.288V11.7573H45.548C47.825 11.7573 48.947 10.7673 48.947 8.75431V8.42431C48.947 6.44431 47.825 5.45431 45.548 5.45431Z" fill="#EDE2E2"/>
<path d="M65.8082 24.0003V5.45431H56.5022V0.570312H81.7142V5.45431H72.4082V24.0003H65.8082Z" fill="#EDE2E2"/>
<path d="M81.5788 24.0003V23.3073C83.1628 23.0763 84.3179 22.3503 84.6809 20.2713L87.4529 4.62931C87.8159 2.55031 87.2549 1.82431 85.6709 1.59331V0.900312H94.9769C100.851 0.900312 104.943 4.43131 103.524 12.4503C102.105 20.4693 96.7588 24.0003 90.8848 24.0003H81.5788ZM87.7169 22.6803H91.1159C95.9669 22.6803 98.8049 18.6213 99.8939 12.4503C100.983 6.27931 99.5639 2.25331 94.7129 2.25331H91.3469L87.7169 22.6803Z" fill="#EDE2E2"/>
<path d="M102.785 24.0003V23.3073C104.27 22.9773 104.864 22.3503 105.227 20.2383L106.811 11.2623C107.174 9.15031 106.844 8.52331 105.359 8.19331V7.50031H110.771L108.527 20.2383C108.164 22.3503 108.494 22.9773 109.979 23.3073V24.0003H102.785ZM107.471 3.17731C107.669 1.92331 108.89 0.900312 110.177 0.900312C111.431 0.900312 112.256 1.92331 112.058 3.17731C111.827 4.46431 110.606 5.48731 109.352 5.48731C108.065 5.48731 107.24 4.46431 107.471 3.17731Z" fill="#EDE2E2"/>
<path d="M111.293 24.0003V23.3073C112.778 22.9773 113.372 22.3503 113.735 20.2383L115.319 11.2623C115.682 9.15031 115.352 8.52331 113.867 8.19331V7.50031H119.279L118.784 10.3383H118.949C120.302 8.02831 122.084 6.97231 123.8 6.97231C125.219 6.97231 126.077 7.69831 125.846 8.88631C125.681 9.81031 124.955 10.5363 124.097 10.5363C122.909 10.5363 122.645 9.18331 121.523 9.18331C120.434 9.18331 119.114 10.4703 118.223 13.5393L117.035 20.2383C116.672 22.3503 117.002 22.9773 118.487 23.3073V24.0003H111.293Z" fill="#EDE2E2"/>
</svg>
